<svg id="shopping-basket" xmlns="http://www.w3.org/2000/svg" viewBox="0 0 45.714 45">
  <defs>
    <style>
      .cls-1 {
        fill: #626262;
      }

      .cls-2 {
        fill: rgba(0,0,0,0);
      }
    </style>
  </defs>
  <path id="Path_2" data-name="Path 2" class="cls-1" d="M42.857,17.143a2.857,2.857,0,0,1,2.02,4.877,2.753,2.753,0,0,1-2.02.837h-.335L39.955,37.634A2.869,2.869,0,0,1,37.143,40H8.571a2.869,2.869,0,0,1-2.812-2.366L3.192,22.857H2.857a2.753,2.753,0,0,1-2.02-.837,2.856,2.856,0,0,1,0-4.04,2.753,2.753,0,0,1,2.02-.837ZM10.826,35a1.453,1.453,0,0,0,1.317-1.54l-.714-9.286a1.425,1.425,0,0,0-2.511-.815A1.381,1.381,0,0,0,8.571,24.4l.714,9.286A1.434,1.434,0,0,0,10.714,35ZM20,33.571V24.286a1.429,1.429,0,0,0-2.857,0v9.286a1.429,1.429,0,0,0,2.857,0Zm8.571,0V24.286a1.429,1.429,0,0,0-2.857,0v9.286a1.429,1.429,0,0,0,2.857,0Zm7.857.112.714-9.286a1.433,1.433,0,0,0-2.857-.223l-.714,9.286A1.453,1.453,0,0,0,34.888,35H35a1.434,1.434,0,0,0,1.429-1.317ZM10.625,6.518l-2.076,9.2H5.6L7.857,5.871a5.431,5.431,0,0,1,1.987-3.2,5.591,5.591,0,0,1,3.571-1.239h3.728a1.373,1.373,0,0,1,.424-1,1.373,1.373,0,0,1,1-.424h8.571a1.373,1.373,0,0,1,1,.424,1.373,1.373,0,0,1,.424,1H32.3a5.591,5.591,0,0,1,3.571,1.239,5.431,5.431,0,0,1,1.987,3.2l2.254,9.844H37.165l-2.076-9.2a2.929,2.929,0,0,0-1.016-1.607A2.735,2.735,0,0,0,32.3,4.286H28.571a1.373,1.373,0,0,1-.424,1,1.373,1.373,0,0,1-1,.424H18.571a1.373,1.373,0,0,1-1-.424,1.373,1.373,0,0,1-.424-1H13.415a2.735,2.735,0,0,0-1.775.625A2.929,2.929,0,0,0,10.625,6.518Z" transform="translate(0 3)"/>
  <rect id="Rectangle_325" data-name="Rectangle 325" class="cls-2" width="45.714" height="45"/>
</svg>
