<svg xmlns="http://www.w3.org/2000/svg" viewBox="0 0 50 45">
  <defs>
    <style>
      .cls-1 {
        fill: #626262;
      }

      .cls-2 {
        fill: rgba(0,0,0,0);
      }
    </style>
  </defs>
  <g id="flask" transform="translate(0 2)">
    <path id="Path_48" data-name="Path 48" class="cls-1" d="M42.766,34.375q1.432,2.318.55,3.971T39.724,40H10.276q-2.71,0-3.592-1.654t.55-3.971L20.092,13.724V3.333H18.456a1.558,1.558,0,0,1-1.15-.495,1.617,1.617,0,0,1-.486-1.172A1.617,1.617,0,0,1,17.306.495,1.558,1.558,0,0,1,18.456,0H31.544a1.558,1.558,0,0,1,1.15.495,1.617,1.617,0,0,1,.486,1.172,1.617,1.617,0,0,1-.486,1.172,1.558,1.558,0,0,1-1.15.495H29.908V13.724ZM22.853,15.495,15.9,26.667H34.1L27.147,15.495l-.511-.807V3.333H23.364V14.688Z" transform="translate(0 0)"/>
    <rect id="Rectangle_412" data-name="Rectangle 412" class="cls-2" width="50" height="45" transform="translate(0 -2)"/>
  </g>
</svg>
