<svg xmlns="http://www.w3.org/2000/svg" xmlns:xlink="http://www.w3.org/1999/xlink" viewBox="0 0 56.25 45">
  <defs>
    <style>
      .cls-1 {
        fill: #626262;
      }

      .cls-2 {
        clip-path: url(#clip-path);
      }
    </style>
    <clipPath id="clip-path">
      <rect id="Rectangle_461" data-name="Rectangle 461" class="cls-1" width="56.25" height="45" transform="translate(1733 164)"/>
    </clipPath>
  </defs>
  <g id="Mask_Group_15" data-name="Mask Group 15" class="cls-2" transform="translate(-1733 -164)">
    <g id="users-bag" transform="translate(1733 164.916)">
      <path id="Path_2197" data-name="Path 2197" class="cls-1" d="M12.8,19.334A7.438,7.438,0,0,0,7.078,22.1H4.186a4.944,4.944,0,0,1-2.978-.874A2.959,2.959,0,0,1,0,18.665q0-7.616,2.676-7.617a4.117,4.117,0,0,1,.939.453,14.116,14.116,0,0,0,2.1.917,7.6,7.6,0,0,0,2.568.464,8.684,8.684,0,0,0,2.87-.5,10.9,10.9,0,0,0-.108,1.424A9.5,9.5,0,0,0,12.8,19.334ZM35.906,33.08a5.374,5.374,0,0,1-1.575,4.089,5.823,5.823,0,0,1-4.186,1.5H11.285a5.823,5.823,0,0,1-4.186-1.5A5.374,5.374,0,0,1,5.524,33.08q0-1.143.076-2.233a21.772,21.772,0,0,1,.3-2.352,18.141,18.141,0,0,1,.572-2.341,11.179,11.179,0,0,1,.928-2.1A7.576,7.576,0,0,1,8.739,22.3a5.614,5.614,0,0,1,1.845-1.154,6.5,6.5,0,0,1,2.406-.432,2.55,2.55,0,0,1,.928.464q.712.463,1.575,1.036A9.4,9.4,0,0,0,17.8,23.251a9.378,9.378,0,0,0,5.826,0,9.4,9.4,0,0,0,2.309-1.036q.864-.573,1.575-1.036a2.55,2.55,0,0,1,.928-.464,6.5,6.5,0,0,1,2.406.432A5.614,5.614,0,0,1,32.691,22.3a7.576,7.576,0,0,1,1.338,1.748,11.179,11.179,0,0,1,.928,2.1,18.14,18.14,0,0,1,.572,2.341,21.772,21.772,0,0,1,.3,2.352Q35.905,31.937,35.906,33.08ZM13.81,5.524A5.321,5.321,0,0,1,12.192,9.43a5.321,5.321,0,0,1-3.906,1.618A5.321,5.321,0,0,1,4.38,9.43,5.321,5.321,0,0,1,2.762,5.524,5.321,5.321,0,0,1,4.38,1.618,5.321,5.321,0,0,1,8.286,0a5.321,5.321,0,0,1,3.906,1.618A5.321,5.321,0,0,1,13.81,5.524ZM29,13.81a7.983,7.983,0,0,1-2.428,5.859A7.983,7.983,0,0,1,20.715,22.1a7.983,7.983,0,0,1-5.859-2.428,7.983,7.983,0,0,1-2.428-5.859,7.983,7.983,0,0,1,2.428-5.859,7.983,7.983,0,0,1,5.859-2.428,7.983,7.983,0,0,1,5.859,2.428A7.983,7.983,0,0,1,29,13.81Z"/>
      <path id="Path_2198" data-name="Path 2198" class="cls-1" d="M39.947,23.078l.544,4.87a.993.993,0,0,1-.248.779.962.962,0,0,1-.747.326H13.6a.962.962,0,0,1-.747-.326.985.985,0,0,1-.248-.779l.544-4.87ZM38.5,10.023l1.338,12.06H13.261L14.6,10.023a1,1,0,0,1,.326-.63.961.961,0,0,1,.669-.257h3.983v1.992a1.992,1.992,0,1,0,3.983,0V9.136h5.975v1.992a1.992,1.992,0,1,0,3.983,0V9.136H37.5a.958.958,0,0,1,.669.257A.994.994,0,0,1,38.5,10.023ZM32.526,7.144v3.983a.995.995,0,0,1-1.99,0V7.144a3.83,3.83,0,0,0-1.167-2.816,3.98,3.98,0,0,0-5.632,0A3.845,3.845,0,0,0,22.57,7.144v3.983a.995.995,0,0,1-1.99,0V7.144a5.758,5.758,0,0,1,1.75-4.225,5.975,5.975,0,0,1,8.45,0A5.754,5.754,0,0,1,32.526,7.144Z" transform="translate(15.753 1.461)"/>
    </g>
  </g>
</svg>
