<?xml version="1.0" encoding="utf-8"?>
<!-- Generator: Adobe Illustrator 23.0.1, SVG Export Plug-In . SVG Version: 6.00 Build 0)  -->
<svg version="1.1" id="Capa_1" xmlns="http://www.w3.org/2000/svg" xmlns:xlink="http://www.w3.org/1999/xlink" x="0px" y="0px"
	 viewBox="0 0 34.6 71.8" style="enable-background:new 0 0 34.6 71.8;" xml:space="preserve">
<style type="text/css">
	.st0{fill:#D2D5D7;}
	.st1{fill:#A46F3E;}
	.st2{fill:#88C057;}
	.st3{fill:#659C35;}
</style>
<g>
	<path class="st0" d="M18.3,44.8c-0.6,0-1-0.4-1-1v-29c0-0.6,0.4-1,1-1s1,0.4,1,1v29C19.3,44.3,18.8,44.8,18.3,44.8z"/>
	<path class="st0" d="M18.3,32.8c-2.8,0-5-2.2-5-5v-13c0-0.6,0.4-1,1-1s1,0.4,1,1v13c0,1.7,1.3,3,3,3s3-1.3,3-3v-13c0-0.6,0.4-1,1-1
		s1,0.4,1,1v13C23.3,30.5,21,32.8,18.3,32.8z"/>
	<path class="st1" d="M18.3,71.8L18.3,71.8c-1.6,0-3-1.3-3-3v-22c0-1.7,1.3-3,3-3l0,0c1.6,0,3,1.3,3,3v22
		C21.3,70.4,19.9,71.8,18.3,71.8z"/>
	<path class="st0" d="M18.3,49.8L18.3,49.8c-0.5,0-1-0.5-1-1l0,0c0-0.5,0.5-1,1-1l0,0c0.5,0,1,0.5,1,1l0,0
		C19.3,49.3,18.8,49.8,18.3,49.8z"/>
	<path class="st0" d="M18.3,53.8L18.3,53.8c-0.5,0-1-0.5-1-1l0,0c0-0.5,0.5-1,1-1l0,0c0.5,0,1,0.5,1,1l0,0
		C19.3,53.3,18.8,53.8,18.3,53.8z"/>
</g>
<g>
	<path class="st2" d="M24.9,25c0.8,0.7,1.8,1.3,3.1,1.5c2.3,0.3,4.6-0.6,5.7-2.5c1.3-2.1,0.9-4.8-0.7-6.6c1-2,0.2-4.5-1.9-5.7
		c0,0,0,0,0,0c0.2-0.3,0.4-0.6,0.5-1c0.2-1.1-0.2-2.3-1.1-2.9C29.7,7.1,28.8,7,28,7.2c-0.3-0.7-0.8-1.4-1.5-1.8
		C24.9,4.5,23,5,22.1,6.5c0,0,0,0,0,0c-2-0.9-4.3-0.3-5.4,1.5c-0.2,0.3-0.3,0.6-0.4,0.9c-2.3-1.2-5.1-0.5-6.3,1.7
		c-0.4,0.7-0.6,1.5-0.6,2.3c-1,0.1-1.9,0.7-2.4,1.6c-0.7,1.3-0.5,2.9,0.5,4c-3.2,5.2-3,9.4-1.6,15.7C6,34.4,6,34.5,6,34.6
		c0,0,0,0,0,0.1c0.6,2.6,4.9,3.3,5.4,0.8c2.5-13.8,14.1-4.9,14.1-4.9s2.3-3.3-0.8-5.3C24.8,25.1,24.9,25,24.9,25
		C24.9,25,24.9,25,24.9,25z"/>
	<path class="st3" d="M6.1,34.7C6.1,34.6,6.1,34.6,6.1,34.7C6,34.5,6,34.4,6,34.2c-1.4-6.3-1.6-10.6,1.6-15.7c-1-1.1-1.2-2.7-0.5-4
		c0.5-0.9,1.4-1.5,2.4-1.6c0-0.8,0.2-1.6,0.6-2.3c1.2-2.2,4-2.9,6.3-1.7c0.1-0.3,0.2-0.6,0.4-0.9c0.8-1.5,2.5-2.2,4.1-1.9
		C21,5.8,21,5.4,21,5.1c0.1-1.8-0.7-3.4-2-3.9c-1.1-0.4-2.2,0-3.1,0.8c-0.5-1-1.3-1.7-2.3-1.9c-2.1-0.4-4,1.7-4.3,4.5c0,0,0,0,0,0
		C7,4.3,5,6.6,4.9,9.6c0,0.4,0,0.9,0.1,1.3c-2.6-0.4-4.6,1.8-4.5,4.8c0,0.9,0.3,1.8,0.6,2.6C0.4,18.8,0,19.7,0,20.7
		c0,1.4,0.9,2.7,2,3.3c-0.1,4.8,1.4,7.6,4.2,11.1c0,0,0.1,0.1,0.1,0.1C6.2,35.1,6.1,34.9,6.1,34.7z"/>
	<path class="st3" d="M17.2,18.5c0.1-0.1,0.1-0.1,0.2-0.2c1-0.8,2-1.3,3-1.8c3,1,4.5,3,4.6,3c0.1,0.1,0.1,0.1,0.2,0.2
		c0.2,0.1,0.5,0.1,0.7,0c0.3-0.2,0.4-0.6,0.1-0.9c-0.1-0.1-1.3-1.7-3.8-2.9c1.8-0.5,3.1-0.4,3.3-0.4c1.1,0.1,2.1,1.3,2.4,1.8
		c0.1,0.1,0.2,0.2,0.3,0.3c0.2,0.1,0.5,0.1,0.7,0c0.3-0.2,0.4-0.6,0.2-0.9c0-0.1-1-1.6-2.4-2.2c0.4-0.4,0.9-0.7,1.1-0.8
		c0.3-0.1,0.5-0.5,0.3-0.9c-0.2-0.3-0.6-0.5-0.9-0.4c-0.1,0-1.4,0.6-2.1,1.7c-1.2,0-4.3,0.3-7.6,2.5c-0.2,0.1-0.4,0.2-0.5,0.4
		c-1-2,0.3-3.7,0.4-3.8c0.2-0.3,0.2-0.7-0.1-0.9c-0.3-0.2-0.7-0.2-1,0.1c-0.8,0.9-1.7,3.2-0.4,5.5c-1.2,1-2.3,2.3-3.5,4
		c0,0-0.1,0.1-0.1,0.2c-0.8,1.2-1.5,2.6-2.1,4.2c-0.5-0.8-0.5-1.6-0.5-1.7c0-0.4-0.3-0.7-0.7-0.7c-0.4,0-0.7,0.3-0.7,0.6
		c0,0.1,0,1.7,1.4,3.2c-0.9,2.5-1.5,5.5-1.9,9C8.2,36.8,8.6,37,9.1,37c0,0,0,0,0,0c0.4-3.7,1.1-6.7,2-9.3c0,0,0,0,0,0
		c0.7-1.9,1.5-3.5,2.3-4.9c1.6-0.9,4.1,0.5,4.1,0.5c0.3,0.2,0.7,0.1,0.9-0.2c0.2-0.3,0.1-0.7-0.3-0.9c0,0,0,0,0,0
		c-0.1-0.1-1.8-1-3.6-1c0.8-1,1.7-1.9,2.5-2.6C17.1,18.6,17.1,18.6,17.2,18.5z"/>
</g>
</svg>
